<?xml version="1.0" encoding="UTF-8"?>
<svg id="Livello_2" data-name="Livello 2" xmlns="http://www.w3.org/2000/svg" viewBox="0 0 1056.29 314.94">
  <defs>
    <style>
      .cls-1 {
        fill: #fff;
      }

      .cls-2 {
        fill: #71cc98;
      }
    </style>
  </defs>
  <g id="Livello_2-2" data-name="Livello 2">
    <g>
      <path class="cls-2" d="m222.52,201.25c-26.8,47.97-78.07,80.42-136.92,80.42v33.27c71.34,0,133.48-39.32,165.97-97.46l-29.05-16.23Z"/>
      <polygon class="cls-1" points="0 214 0 2.96 34.82 2.96 34.82 185.77 114.91 185.77 114.91 214 0 214"/>
      <path class="cls-1" d="m165.41,155.03c-23.53,0-43.64-7.48-58.16-21.64-14.4-14.04-22-33.33-22-55.81s7.72-42.06,22.32-56.14C122.12,7.42,142.12,0,165.41,0s43.43,7.48,57.46,21.62c13.82,13.93,21.13,33.38,21.13,56.25,0,2.99-.17,7.08-.39,9.67-6.63-1.29-35.87-6.59-67.5-6.59-21.32,0-39.72,2.34-54.69,6.95l-1.25.39.21,1.29c4.09,24.83,20.54,38.51,46.33,38.51,16.92,0,37.44-5.61,40.4-21.35h34.56c-1.7,12.11-9.27,23.88-20.93,32.45-14.1,10.37-33.23,15.85-55.33,15.85Zm.43-128.52c-23.87,0-40.28,13.02-45.02,35.72l-.56,2.67,2.56-.96c16.34-6.15,39.3-7.44,55.68-7.44,15.29,0,26.91,1.1,27.4,1.14l1.64.16v-1.65c0-11.96-13.25-29.65-41.7-29.65Z"/>
      <polygon class="cls-1" points="369.21 151.74 332.64 99.65 294.6 151.74 258.03 151.74 314.86 78.77 260.17 2.58 297.73 2.58 333.77 54.89 369.23 2.58 405.88 2.58 352.69 75.43 406.79 151.74 369.21 151.74"/>
      <path class="cls-1" d="m497.87,280.28c-48.58,0-77.59-14.65-77.59-39.19,0-5.72,1.34-11.19,3.69-15.14l31.4,4.56c-.77,1.7-1.7,4.59-1.7,8.57,0,12.12,15.25,18.26,45.34,18.26s45.92-6.55,45.92-17.98-11.43-12.92-24.16-13.96l-57.72-5.3c-20.67-2.01-34.03-12.89-34.03-27.73,0-11.03,8.62-21.48,16.64-26.53l1.73-1.09-1.56-1.32c-12.12-10.27-18.53-24.48-18.53-41.12,0-34.33,28.96-59.25,68.85-59.25,21.44,0,40.96,8.07,50.96,21.05l2.26,2.94,2.41-21.41h30.58l-13.33,57.19c-8.97,37.83-32.53,57.01-70.03,57.01-12.44,0-23.64-1.8-33.3-5.35l-.82-.3-.67.56c-2.02,1.7-5.41,5.26-5.41,10.03,0,7.82,6.04,11.57,20.85,12.96l53.58,5.01c30.37,2.91,43.91,13.49,43.91,34.33,0,27.46-28.91,43.2-79.31,43.2Zm1.15-190.7c-22.58,0-37.75,13.04-37.75,32.45s14.06,31.73,37.61,31.73,37.46-11.97,37.46-32.02-14.3-32.16-37.32-32.16Z"/>
      <path class="cls-1" d="m678.68,218.1c-23.53,0-43.64-7.48-58.16-21.64-14.4-14.04-22-33.33-22-55.81s7.72-42.06,22.32-56.14c14.56-14.03,34.56-21.45,57.84-21.45s43.43,7.48,57.46,21.62c13.82,13.93,21.13,33.38,21.13,56.25,0,3.08-.19,7.42-.42,9.96h-123.5l.29,1.74c4.09,24.83,20.54,38.51,46.32,38.51,16.92,0,37.44-5.61,40.4-21.35h34.56c-1.7,12.11-9.27,23.88-20.93,32.45-14.1,10.37-33.23,15.84-55.33,15.84Zm.43-128.52c-23.86,0-40.27,13.02-45.02,35.72l-.38,1.81h87.73l-.14-1.63c-2.28-26.5-24.15-35.9-42.18-35.9Z"/>
      <path class="cls-1" d="m791.37,214.81V65.65h34.68v24.08l2.77-4.44c9.09-14.54,23.66-22.22,42.14-22.22,10.72,0,17.27,1.87,19.66,2.89l-6.25,31.4c-2.68-1.29-8.05-3.2-16.41-3.2-9.83,0-41.9,3.35-41.9,46.49v74.15h-34.68Z"/>
      <path class="cls-1" d="m964.08,219.35c-17.14,0-31.61-4.16-41.86-12.03-10.41-8-15.91-19.52-15.91-33.33,0-34.89,34.95-45.62,64.27-48.47,36.81-3.65,49.69-5.71,49.69-14.5v-.3c0-14.67-13.53-23.08-37.12-23.08-24.8,0-37.72,8.8-38.42,26.16h-35.44c.41-16.5,7.62-30.25,20.9-39.81,13.2-9.51,31.61-14.53,53.26-14.53,44.25,0,72.85,20.99,72.85,53.48v103.15h-30.48c-.56-2.28-1.94-7.71-4.11-16.17l-.7-2.72-1.87,2.09c-11.42,12.74-31.49,20.05-55.05,20.05Zm54.6-77.11c-10.38,2.76-23.82,4.93-39.96,6.46-22.47,2.28-36.39,6.76-36.39,22.04,0,13.94,10.5,21.01,31.21,21.01,34.67,0,47.02-21.01,47.02-40.67v-9.34l-1.89.5Z"/>
    </g>
  </g>
</svg>
